<mxfile host="app.diagrams.net" agent="Mozilla/5.0 (Windows NT 10.0; Win64; x64; rv:131.0) Gecko/20100101 Firefox/131.0" version="24.7.8">
  <diagram name="Page-1" id="XUIIS11C8OAZdtPvahTg">
    <mxGraphModel dx="1615" dy="1971" grid="1" gridSize="10" guides="1" tooltips="1" connect="1" arrows="1" fold="1" page="1" pageScale="1" pageWidth="850" pageHeight="1100" math="0" shadow="0">
      <root>
        <mxCell id="0" />
        <mxCell id="1" parent="0" />
        <mxCell id="bMdkhYlIFBDYfJSx4h5A-9" value="" style="endArrow=none;html=1;rounded=0;entryX=0.5;entryY=1;entryDx=0;entryDy=0;" edge="1" parent="1">
          <mxGeometry width="50" height="50" relative="1" as="geometry">
            <mxPoint x="420" y="240" as="sourcePoint" />
            <mxPoint x="420" y="220" as="targetPoint" />
          </mxGeometry>
        </mxCell>
        <mxCell id="bMdkhYlIFBDYfJSx4h5A-10" value="" style="endArrow=none;html=1;rounded=0;" edge="1" parent="1">
          <mxGeometry width="50" height="50" relative="1" as="geometry">
            <mxPoint x="740" y="240" as="sourcePoint" />
            <mxPoint x="100" y="240" as="targetPoint" />
          </mxGeometry>
        </mxCell>
        <mxCell id="bMdkhYlIFBDYfJSx4h5A-12" value="" style="endArrow=none;html=1;rounded=0;exitX=0.5;exitY=0;exitDx=0;exitDy=0;" edge="1" parent="1">
          <mxGeometry width="50" height="50" relative="1" as="geometry">
            <mxPoint x="100" y="280" as="sourcePoint" />
            <mxPoint x="100" y="240" as="targetPoint" />
          </mxGeometry>
        </mxCell>
        <mxCell id="bMdkhYlIFBDYfJSx4h5A-13" value="" style="endArrow=none;html=1;rounded=0;exitX=0.5;exitY=0;exitDx=0;exitDy=0;" edge="1" parent="1">
          <mxGeometry width="50" height="50" relative="1" as="geometry">
            <mxPoint x="260" y="280" as="sourcePoint" />
            <mxPoint x="260" y="240" as="targetPoint" />
          </mxGeometry>
        </mxCell>
        <mxCell id="bMdkhYlIFBDYfJSx4h5A-14" value="" style="endArrow=none;html=1;rounded=0;exitX=0.5;exitY=0;exitDx=0;exitDy=0;" edge="1" parent="1">
          <mxGeometry width="50" height="50" relative="1" as="geometry">
            <mxPoint x="419.5" y="280" as="sourcePoint" />
            <mxPoint x="419.5" y="240" as="targetPoint" />
          </mxGeometry>
        </mxCell>
        <mxCell id="bMdkhYlIFBDYfJSx4h5A-15" value="" style="endArrow=none;html=1;rounded=0;exitX=0.5;exitY=0;exitDx=0;exitDy=0;" edge="1" parent="1">
          <mxGeometry width="50" height="50" relative="1" as="geometry">
            <mxPoint x="579.5" y="280" as="sourcePoint" />
            <mxPoint x="579.5" y="240" as="targetPoint" />
          </mxGeometry>
        </mxCell>
        <mxCell id="bMdkhYlIFBDYfJSx4h5A-16" value="" style="endArrow=none;html=1;rounded=0;exitX=0.5;exitY=0;exitDx=0;exitDy=0;" edge="1" parent="1">
          <mxGeometry width="50" height="50" relative="1" as="geometry">
            <mxPoint x="739.5" y="280" as="sourcePoint" />
            <mxPoint x="739.5" y="240" as="targetPoint" />
          </mxGeometry>
        </mxCell>
        <mxCell id="bMdkhYlIFBDYfJSx4h5A-17" value="&lt;b&gt;Services Page&lt;/b&gt;" style="swimlane;fontStyle=0;childLayout=stackLayout;horizontal=1;startSize=30;horizontalStack=0;resizeParent=1;resizeParentMax=0;resizeLast=0;collapsible=1;marginBottom=0;whiteSpace=wrap;html=1;strokeColor=none;" vertex="1" parent="1">
          <mxGeometry x="30" y="280" width="140" height="120" as="geometry" />
        </mxCell>
        <mxCell id="bMdkhYlIFBDYfJSx4h5A-18" value="Security Testing" style="text;strokeColor=none;fillColor=none;align=left;verticalAlign=middle;spacingLeft=4;spacingRight=4;overflow=hidden;points=[[0,0.5],[1,0.5]];portConstraint=eastwest;rotatable=0;whiteSpace=wrap;html=1;" vertex="1" parent="bMdkhYlIFBDYfJSx4h5A-17">
          <mxGeometry y="30" width="140" height="30" as="geometry" />
        </mxCell>
        <mxCell id="bMdkhYlIFBDYfJSx4h5A-19" value="Vulnerability Assessments" style="text;strokeColor=none;fillColor=none;align=left;verticalAlign=middle;spacingLeft=4;spacingRight=4;overflow=hidden;points=[[0,0.5],[1,0.5]];portConstraint=eastwest;rotatable=0;whiteSpace=wrap;html=1;" vertex="1" parent="bMdkhYlIFBDYfJSx4h5A-17">
          <mxGeometry y="60" width="140" height="30" as="geometry" />
        </mxCell>
        <mxCell id="bMdkhYlIFBDYfJSx4h5A-20" value="Managed Security Services" style="text;strokeColor=none;fillColor=none;align=left;verticalAlign=middle;spacingLeft=4;spacingRight=4;overflow=hidden;points=[[0,0.5],[1,0.5]];portConstraint=eastwest;rotatable=0;whiteSpace=wrap;html=1;" vertex="1" parent="bMdkhYlIFBDYfJSx4h5A-17">
          <mxGeometry y="90" width="140" height="30" as="geometry" />
        </mxCell>
        <mxCell id="bMdkhYlIFBDYfJSx4h5A-29" value="&lt;b&gt;Blog Page&lt;/b&gt;" style="swimlane;fontStyle=0;childLayout=stackLayout;horizontal=1;startSize=30;horizontalStack=0;resizeParent=1;resizeParentMax=0;resizeLast=0;collapsible=1;marginBottom=0;whiteSpace=wrap;html=1;strokeColor=none;" vertex="1" parent="1">
          <mxGeometry x="190" y="280" width="140" height="120" as="geometry" />
        </mxCell>
        <mxCell id="bMdkhYlIFBDYfJSx4h5A-30" value="Beginner Guides" style="text;strokeColor=none;fillColor=none;align=left;verticalAlign=middle;spacingLeft=4;spacingRight=4;overflow=hidden;points=[[0,0.5],[1,0.5]];portConstraint=eastwest;rotatable=0;whiteSpace=wrap;html=1;" vertex="1" parent="bMdkhYlIFBDYfJSx4h5A-29">
          <mxGeometry y="30" width="140" height="30" as="geometry" />
        </mxCell>
        <mxCell id="bMdkhYlIFBDYfJSx4h5A-31" value="Cybersecurity Trends" style="text;strokeColor=none;fillColor=none;align=left;verticalAlign=middle;spacingLeft=4;spacingRight=4;overflow=hidden;points=[[0,0.5],[1,0.5]];portConstraint=eastwest;rotatable=0;whiteSpace=wrap;html=1;" vertex="1" parent="bMdkhYlIFBDYfJSx4h5A-29">
          <mxGeometry y="60" width="140" height="30" as="geometry" />
        </mxCell>
        <mxCell id="bMdkhYlIFBDYfJSx4h5A-32" value="Technical Insights" style="text;strokeColor=none;fillColor=none;align=left;verticalAlign=middle;spacingLeft=4;spacingRight=4;overflow=hidden;points=[[0,0.5],[1,0.5]];portConstraint=eastwest;rotatable=0;whiteSpace=wrap;html=1;" vertex="1" parent="bMdkhYlIFBDYfJSx4h5A-29">
          <mxGeometry y="90" width="140" height="30" as="geometry" />
        </mxCell>
        <mxCell id="bMdkhYlIFBDYfJSx4h5A-33" value="&lt;b&gt;Certifications Page&lt;/b&gt;" style="swimlane;fontStyle=0;childLayout=stackLayout;horizontal=1;startSize=30;horizontalStack=0;resizeParent=1;resizeParentMax=0;resizeLast=0;collapsible=1;marginBottom=0;whiteSpace=wrap;html=1;" vertex="1" parent="1">
          <mxGeometry x="350" y="280" width="140" height="150" as="geometry" />
        </mxCell>
        <mxCell id="bMdkhYlIFBDYfJSx4h5A-70" value="" style="swimlane;startSize=0;" vertex="1" parent="bMdkhYlIFBDYfJSx4h5A-33">
          <mxGeometry y="30" width="140" height="120" as="geometry" />
        </mxCell>
        <mxCell id="bMdkhYlIFBDYfJSx4h5A-34" value="Available Certifications" style="text;strokeColor=none;fillColor=none;align=left;verticalAlign=middle;spacingLeft=4;spacingRight=4;overflow=hidden;points=[[0,0.5],[1,0.5]];portConstraint=eastwest;rotatable=0;whiteSpace=wrap;html=1;" vertex="1" parent="bMdkhYlIFBDYfJSx4h5A-70">
          <mxGeometry width="140" height="30" as="geometry" />
        </mxCell>
        <mxCell id="bMdkhYlIFBDYfJSx4h5A-35" value="Exam Scheduling and Pricing" style="text;strokeColor=none;fillColor=none;align=left;verticalAlign=middle;spacingLeft=4;spacingRight=4;overflow=hidden;points=[[0,0.5],[1,0.5]];portConstraint=eastwest;rotatable=0;whiteSpace=wrap;html=1;" vertex="1" parent="bMdkhYlIFBDYfJSx4h5A-70">
          <mxGeometry y="60" width="140" height="30" as="geometry" />
        </mxCell>
        <mxCell id="bMdkhYlIFBDYfJSx4h5A-36" value="Study Resources" style="text;strokeColor=none;fillColor=none;align=left;verticalAlign=middle;spacingLeft=4;spacingRight=4;overflow=hidden;points=[[0,0.5],[1,0.5]];portConstraint=eastwest;rotatable=0;whiteSpace=wrap;html=1;" vertex="1" parent="bMdkhYlIFBDYfJSx4h5A-70">
          <mxGeometry y="90" width="140" height="30" as="geometry" />
        </mxCell>
        <mxCell id="bMdkhYlIFBDYfJSx4h5A-72" value="Certification Requirements" style="text;strokeColor=none;fillColor=none;align=left;verticalAlign=middle;spacingLeft=4;spacingRight=4;overflow=hidden;points=[[0,0.5],[1,0.5]];portConstraint=eastwest;rotatable=0;whiteSpace=wrap;html=1;" vertex="1" parent="bMdkhYlIFBDYfJSx4h5A-70">
          <mxGeometry y="30" width="140" height="30" as="geometry" />
        </mxCell>
        <mxCell id="bMdkhYlIFBDYfJSx4h5A-45" value="&lt;b&gt;Home Page&lt;/b&gt;" style="swimlane;fontStyle=0;childLayout=stackLayout;horizontal=1;startSize=30;horizontalStack=0;resizeParent=1;resizeParentMax=0;resizeLast=0;collapsible=1;marginBottom=0;whiteSpace=wrap;html=1;swimlaneLine=1;strokeWidth=0;" vertex="1" parent="1">
          <mxGeometry x="350" y="-60" width="140" height="120" as="geometry" />
        </mxCell>
        <mxCell id="bMdkhYlIFBDYfJSx4h5A-46" value="Hero Section" style="text;strokeColor=none;fillColor=none;align=left;verticalAlign=middle;spacingLeft=4;spacingRight=4;overflow=hidden;points=[[0,0.5],[1,0.5]];portConstraint=eastwest;rotatable=0;whiteSpace=wrap;html=1;dashed=1;dashPattern=12 12;" vertex="1" parent="bMdkhYlIFBDYfJSx4h5A-45">
          <mxGeometry y="30" width="140" height="30" as="geometry" />
        </mxCell>
        <mxCell id="bMdkhYlIFBDYfJSx4h5A-47" value="Overview of Services" style="text;strokeColor=none;fillColor=none;align=left;verticalAlign=middle;spacingLeft=4;spacingRight=4;overflow=hidden;points=[[0,0.5],[1,0.5]];portConstraint=eastwest;rotatable=0;whiteSpace=wrap;html=1;" vertex="1" parent="bMdkhYlIFBDYfJSx4h5A-45">
          <mxGeometry y="60" width="140" height="30" as="geometry" />
        </mxCell>
        <mxCell id="bMdkhYlIFBDYfJSx4h5A-48" value="Client Testimonials" style="text;strokeColor=none;fillColor=none;align=left;verticalAlign=middle;spacingLeft=4;spacingRight=4;overflow=hidden;points=[[0,0.5],[1,0.5]];portConstraint=eastwest;rotatable=0;whiteSpace=wrap;html=1;" vertex="1" parent="bMdkhYlIFBDYfJSx4h5A-45">
          <mxGeometry y="90" width="140" height="30" as="geometry" />
        </mxCell>
        <mxCell id="bMdkhYlIFBDYfJSx4h5A-50" value="" style="swimlane;startSize=0;strokeWidth=0;" vertex="1" parent="1">
          <mxGeometry x="350" y="60" width="140" height="160" as="geometry" />
        </mxCell>
        <mxCell id="bMdkhYlIFBDYfJSx4h5A-51" value="Latest Blog Posts" style="text;strokeColor=none;fillColor=none;align=left;verticalAlign=middle;spacingLeft=4;spacingRight=4;overflow=hidden;points=[[0,0.5],[1,0.5]];portConstraint=eastwest;rotatable=0;whiteSpace=wrap;html=1;" vertex="1" parent="bMdkhYlIFBDYfJSx4h5A-50">
          <mxGeometry width="140" height="30" as="geometry" />
        </mxCell>
        <mxCell id="bMdkhYlIFBDYfJSx4h5A-52" value="Certifications Highlight" style="text;strokeColor=none;fillColor=none;align=left;verticalAlign=middle;spacingLeft=4;spacingRight=4;overflow=hidden;points=[[0,0.5],[1,0.5]];portConstraint=eastwest;rotatable=0;whiteSpace=wrap;html=1;" vertex="1" parent="bMdkhYlIFBDYfJSx4h5A-50">
          <mxGeometry y="30" width="140" height="30" as="geometry" />
        </mxCell>
        <mxCell id="bMdkhYlIFBDYfJSx4h5A-53" value="Sign In/Sign Up Button" style="text;strokeColor=none;fillColor=none;align=left;verticalAlign=middle;spacingLeft=4;spacingRight=4;overflow=hidden;points=[[0,0.5],[1,0.5]];portConstraint=eastwest;rotatable=0;whiteSpace=wrap;html=1;" vertex="1" parent="bMdkhYlIFBDYfJSx4h5A-50">
          <mxGeometry y="65" width="140" height="30" as="geometry" />
        </mxCell>
        <mxCell id="bMdkhYlIFBDYfJSx4h5A-54" value="Contact Button" style="text;strokeColor=none;fillColor=none;align=left;verticalAlign=middle;spacingLeft=4;spacingRight=4;overflow=hidden;points=[[0,0.5],[1,0.5]];portConstraint=eastwest;rotatable=0;whiteSpace=wrap;html=1;" vertex="1" parent="bMdkhYlIFBDYfJSx4h5A-50">
          <mxGeometry y="95" width="140" height="30" as="geometry" />
        </mxCell>
        <mxCell id="bMdkhYlIFBDYfJSx4h5A-55" value="Footer" style="text;strokeColor=none;fillColor=none;align=left;verticalAlign=middle;spacingLeft=4;spacingRight=4;overflow=hidden;points=[[0,0.5],[1,0.5]];portConstraint=eastwest;rotatable=0;whiteSpace=wrap;html=1;" vertex="1" parent="bMdkhYlIFBDYfJSx4h5A-50">
          <mxGeometry y="125" width="140" height="30" as="geometry" />
        </mxCell>
        <mxCell id="bMdkhYlIFBDYfJSx4h5A-56" value="" style="swimlane;startSize=0;" vertex="1" parent="1">
          <mxGeometry x="350" y="-60" width="140" height="280" as="geometry" />
        </mxCell>
        <mxCell id="bMdkhYlIFBDYfJSx4h5A-57" value="" style="swimlane;startSize=0;" vertex="1" parent="1">
          <mxGeometry x="350" y="-60" width="140" height="30" as="geometry" />
        </mxCell>
        <mxCell id="bMdkhYlIFBDYfJSx4h5A-58" value="" style="swimlane;startSize=0;" vertex="1" parent="1">
          <mxGeometry x="30" y="280" width="140" height="150" as="geometry" />
        </mxCell>
        <mxCell id="bMdkhYlIFBDYfJSx4h5A-59" value="Custom Security Solutions" style="text;strokeColor=none;fillColor=none;align=left;verticalAlign=middle;spacingLeft=4;spacingRight=4;overflow=hidden;points=[[0,0.5],[1,0.5]];portConstraint=eastwest;rotatable=0;whiteSpace=wrap;html=1;" vertex="1" parent="bMdkhYlIFBDYfJSx4h5A-58">
          <mxGeometry y="120" width="140" height="30" as="geometry" />
        </mxCell>
        <mxCell id="bMdkhYlIFBDYfJSx4h5A-60" value="" style="swimlane;startSize=0;" vertex="1" parent="1">
          <mxGeometry x="30" y="280" width="140" height="30" as="geometry" />
        </mxCell>
        <mxCell id="bMdkhYlIFBDYfJSx4h5A-61" value="Custom Security Solutions" style="text;strokeColor=none;fillColor=none;align=left;verticalAlign=middle;spacingLeft=4;spacingRight=4;overflow=hidden;points=[[0,0.5],[1,0.5]];portConstraint=eastwest;rotatable=0;whiteSpace=wrap;html=1;" vertex="1" parent="bMdkhYlIFBDYfJSx4h5A-60">
          <mxGeometry y="120" width="140" height="30" as="geometry" />
        </mxCell>
        <mxCell id="bMdkhYlIFBDYfJSx4h5A-62" value="" style="swimlane;startSize=0;" vertex="1" parent="1">
          <mxGeometry x="190" y="280" width="140" height="150" as="geometry" />
        </mxCell>
        <mxCell id="bMdkhYlIFBDYfJSx4h5A-63" value="Search and Filter Options" style="text;strokeColor=none;fillColor=none;align=left;verticalAlign=middle;spacingLeft=4;spacingRight=4;overflow=hidden;points=[[0,0.5],[1,0.5]];portConstraint=eastwest;rotatable=0;whiteSpace=wrap;html=1;" vertex="1" parent="bMdkhYlIFBDYfJSx4h5A-62">
          <mxGeometry y="120" width="140" height="30" as="geometry" />
        </mxCell>
        <mxCell id="bMdkhYlIFBDYfJSx4h5A-64" value="" style="swimlane;startSize=0;" vertex="1" parent="1">
          <mxGeometry x="190" y="280" width="140" height="30" as="geometry" />
        </mxCell>
        <mxCell id="bMdkhYlIFBDYfJSx4h5A-65" value="Search and Filter Options" style="text;strokeColor=none;fillColor=none;align=left;verticalAlign=middle;spacingLeft=4;spacingRight=4;overflow=hidden;points=[[0,0.5],[1,0.5]];portConstraint=eastwest;rotatable=0;whiteSpace=wrap;html=1;" vertex="1" parent="bMdkhYlIFBDYfJSx4h5A-64">
          <mxGeometry y="120" width="140" height="30" as="geometry" />
        </mxCell>
        <mxCell id="bMdkhYlIFBDYfJSx4h5A-73" value="&lt;b&gt;About Us Page&lt;/b&gt;" style="swimlane;fontStyle=0;childLayout=stackLayout;horizontal=1;startSize=30;horizontalStack=0;resizeParent=1;resizeParentMax=0;resizeLast=0;collapsible=1;marginBottom=0;whiteSpace=wrap;html=1;" vertex="1" parent="1">
          <mxGeometry x="510" y="280" width="140" height="150" as="geometry" />
        </mxCell>
        <mxCell id="bMdkhYlIFBDYfJSx4h5A-74" value="" style="swimlane;startSize=0;" vertex="1" parent="bMdkhYlIFBDYfJSx4h5A-73">
          <mxGeometry y="30" width="140" height="120" as="geometry" />
        </mxCell>
        <mxCell id="bMdkhYlIFBDYfJSx4h5A-75" value="Company Mission and Vision" style="text;strokeColor=none;fillColor=none;align=left;verticalAlign=middle;spacingLeft=4;spacingRight=4;overflow=hidden;points=[[0,0.5],[1,0.5]];portConstraint=eastwest;rotatable=0;whiteSpace=wrap;html=1;" vertex="1" parent="bMdkhYlIFBDYfJSx4h5A-74">
          <mxGeometry width="140" height="30" as="geometry" />
        </mxCell>
        <mxCell id="bMdkhYlIFBDYfJSx4h5A-76" value="Careers" style="text;strokeColor=none;fillColor=none;align=left;verticalAlign=middle;spacingLeft=4;spacingRight=4;overflow=hidden;points=[[0,0.5],[1,0.5]];portConstraint=eastwest;rotatable=0;whiteSpace=wrap;html=1;" vertex="1" parent="bMdkhYlIFBDYfJSx4h5A-74">
          <mxGeometry y="60" width="140" height="30" as="geometry" />
        </mxCell>
        <mxCell id="bMdkhYlIFBDYfJSx4h5A-77" value="Contact Information" style="text;strokeColor=none;fillColor=none;align=left;verticalAlign=middle;spacingLeft=4;spacingRight=4;overflow=hidden;points=[[0,0.5],[1,0.5]];portConstraint=eastwest;rotatable=0;whiteSpace=wrap;html=1;" vertex="1" parent="bMdkhYlIFBDYfJSx4h5A-74">
          <mxGeometry y="90" width="140" height="30" as="geometry" />
        </mxCell>
        <mxCell id="bMdkhYlIFBDYfJSx4h5A-78" value="Our Team" style="text;strokeColor=none;fillColor=none;align=left;verticalAlign=middle;spacingLeft=4;spacingRight=4;overflow=hidden;points=[[0,0.5],[1,0.5]];portConstraint=eastwest;rotatable=0;whiteSpace=wrap;html=1;" vertex="1" parent="bMdkhYlIFBDYfJSx4h5A-74">
          <mxGeometry y="30" width="140" height="30" as="geometry" />
        </mxCell>
        <mxCell id="bMdkhYlIFBDYfJSx4h5A-79" value="&lt;b&gt;Sign In/Sign Up Page&lt;/b&gt;" style="swimlane;fontStyle=0;childLayout=stackLayout;horizontal=1;startSize=30;horizontalStack=0;resizeParent=1;resizeParentMax=0;resizeLast=0;collapsible=1;marginBottom=0;whiteSpace=wrap;html=1;" vertex="1" parent="1">
          <mxGeometry x="670" y="280" width="140" height="150" as="geometry" />
        </mxCell>
        <mxCell id="bMdkhYlIFBDYfJSx4h5A-80" value="" style="swimlane;startSize=0;" vertex="1" parent="bMdkhYlIFBDYfJSx4h5A-79">
          <mxGeometry y="30" width="140" height="120" as="geometry" />
        </mxCell>
        <mxCell id="bMdkhYlIFBDYfJSx4h5A-81" value="Sign In" style="text;strokeColor=none;fillColor=none;align=left;verticalAlign=middle;spacingLeft=4;spacingRight=4;overflow=hidden;points=[[0,0.5],[1,0.5]];portConstraint=eastwest;rotatable=0;whiteSpace=wrap;html=1;" vertex="1" parent="bMdkhYlIFBDYfJSx4h5A-80">
          <mxGeometry width="140" height="30" as="geometry" />
        </mxCell>
        <mxCell id="bMdkhYlIFBDYfJSx4h5A-82" value="Forgot Password" style="text;strokeColor=none;fillColor=none;align=left;verticalAlign=middle;spacingLeft=4;spacingRight=4;overflow=hidden;points=[[0,0.5],[1,0.5]];portConstraint=eastwest;rotatable=0;whiteSpace=wrap;html=1;" vertex="1" parent="bMdkhYlIFBDYfJSx4h5A-80">
          <mxGeometry y="60" width="140" height="30" as="geometry" />
        </mxCell>
        <mxCell id="bMdkhYlIFBDYfJSx4h5A-83" value="Account Dashboard" style="text;strokeColor=none;fillColor=none;align=left;verticalAlign=middle;spacingLeft=4;spacingRight=4;overflow=hidden;points=[[0,0.5],[1,0.5]];portConstraint=eastwest;rotatable=0;whiteSpace=wrap;html=1;" vertex="1" parent="bMdkhYlIFBDYfJSx4h5A-80">
          <mxGeometry y="90" width="140" height="30" as="geometry" />
        </mxCell>
        <mxCell id="bMdkhYlIFBDYfJSx4h5A-84" value="Sign Up" style="text;strokeColor=none;fillColor=none;align=left;verticalAlign=middle;spacingLeft=4;spacingRight=4;overflow=hidden;points=[[0,0.5],[1,0.5]];portConstraint=eastwest;rotatable=0;whiteSpace=wrap;html=1;" vertex="1" parent="bMdkhYlIFBDYfJSx4h5A-80">
          <mxGeometry y="30" width="140" height="30" as="geometry" />
        </mxCell>
      </root>
    </mxGraphModel>
  </diagram>
</mxfile>
